<svg xmlns="http://www.w3.org/2000/svg" viewBox="0 0 400 200">
<rect x="2" y="2" width="396" height="196" fill="white" stroke="black" stroke-width="3"/>
<rect x="2" y="2" width="155" height="98" fill="white" stroke="black" stroke-width="2"/>
<path d="M2 2L157 100M157 2L2 100M79.5 2V100M2 51H157" fill="none" stroke="black" stroke-width="2"/>
<circle cx="292" cy="104" r="55" fill="white" stroke="black" stroke-width="2.5"/><circle cx="292" cy="104" r="44" fill="white" stroke="black" stroke-width="1.5"/>
<circle cx="292" cy="89" r="7" fill="white" stroke="black" stroke-width="1.5"/><path d="M292 96V126M292 104L275 115M292 104L309 115" fill="none" stroke="black" stroke-width="2"/>
<g fill="white" stroke="black" stroke-width="1.3"><circle cx="292.0" cy="142.0" r="3.2"/><circle cx="271.5" cy="136.0" r="3.2"/><circle cx="257.4" cy="119.8" r="3.2"/><circle cx="254.4" cy="98.6" r="3.2"/><circle cx="263.3" cy="79.1" r="3.2"/><circle cx="281.3" cy="67.5" r="3.2"/><circle cx="302.7" cy="67.5" r="3.2"/><circle cx="320.7" cy="79.1" r="3.2"/><circle cx="329.6" cy="98.6" r="3.2"/><circle cx="326.6" cy="119.8" r="3.2"/><circle cx="312.5" cy="136.0" r="3.2"/></g><g font-family="Arial" font-size="16" font-weight="bold" fill="#777" text-anchor="middle"><text x="80" y="155">1</text><text x="80" y="55">2</text><text x="292" y="178">3</text></g></svg>