<svg xmlns="http://www.w3.org/2000/svg" viewBox="0 0 300 200">
<rect x="1" y="1" width="298" height="198" fill="white" stroke="black" stroke-width="2"/>
<!-- Blue initials -->
<text x="32" y="178" font-family="Arial,sans-serif" font-size="38" font-weight="bold"
      fill="white" stroke="black" stroke-width="1">V</text>
<text x="246" y="178" font-family="Arial,sans-serif" font-size="38" font-weight="bold"
      fill="white" stroke="black" stroke-width="1">I</text>
<!-- simplified eagle -->
<path d="M150 52 Q126 45 105 64 Q120 66 132 74 Q112 74 94 88 Q118 86 138 91
Q121 105 108 124 Q131 116 145 103 Q143 125 150 145 Q157 125 155 103
Q169 116 192 124 Q179 105 162 91 Q182 86 206 88 Q188 74 168 74
Q180 66 195 64 Q174 45 150 52 Z"
fill="white" stroke="black" stroke-width="3"/>
<!-- shield -->
<path d="M137 75 L163 75 L160 105 Q150 116 140 105 Z" fill="white" stroke="black" stroke-width="3"/>
<path d="M150 76 V108 M139 90 H161" fill="none" stroke="black" stroke-width="2"/>
<!-- olive branch -->
<path d="M168 106 Q190 120 202 141" fill="none" stroke="black" stroke-width="2"/>
<path d="M178 116l6 -4 M183 122l7 -3 M188 129l7 -2 M193 136l7 -1" stroke="black" stroke-width="2"/>
<!-- numbers -->
<g font-family="Arial,sans-serif" font-size="13" font-weight="700" fill="#777" text-anchor="middle">
<text x="40" y="35">1</text><text x="260" y="35">1</text>
<text x="40" y="150">2</text><text x="260" y="150">2</text>
<text x="150" y="40">3</text>
</g>
</svg>